<svg width="43" height="40" viewBox="0 0 43 40" fill="none" xmlns="http://www.w3.org/2000/svg">
<path fill-rule="evenodd" clip-rule="evenodd" d="M28.3298 6.61222C27.9746 6.90434 27.4501 6.85786 27.1547 6.49936C26.8592 6.14085 26.909 5.61969 27.2675 5.32426L32.27 1.19149C32.6252 0.89937 33.1497 0.945843 33.4451 1.30103C33.7372 1.65621 33.6907 2.18069 33.3322 2.47613L28.3298 6.61222ZM4.02774 21.1748C3.4767 21.3375 3.07173 21.696 2.80285 22.1707C2.49413 22.7184 2.35471 23.4255 2.36467 24.1823C2.36799 24.5076 2.40119 24.8429 2.45762 25.1815C2.51405 25.5234 2.60036 25.8653 2.70658 26.2006C2.81612 26.5392 2.9489 26.8678 3.10492 27.1831C3.25762 27.4885 3.43023 27.7806 3.61944 28.0462C4.08417 28.6935 4.66176 29.208 5.32898 29.4669C5.90989 29.696 6.56383 29.7292 7.26757 29.4869L7.28085 29.4835C7.36051 29.457 7.44018 29.447 7.51985 29.4537C7.57628 29.457 7.63271 29.4669 7.68914 29.4835L7.70574 29.4769C7.89495 29.4138 8.0908 29.3541 8.28333 29.2943L8.81113 29.1317C9.00366 29.0752 9.18623 29.0221 9.35885 28.9723C9.52814 28.9226 9.70076 28.8761 9.87669 28.8296C10.0593 28.7798 10.2418 28.8097 10.3945 28.896L10.4111 28.906C10.5539 28.9923 10.6634 29.1317 10.7132 29.3076C10.7232 29.3375 10.7265 29.3607 10.7298 29.3873C10.7763 29.5964 10.8327 29.8122 10.8725 30.0213C11.2344 31.6412 11.5862 33.2014 12.0543 34.4661C12.0941 34.5922 12.1439 34.7151 12.1904 34.8412C12.3331 35.2395 12.4825 35.6512 12.6485 36.0263C12.8078 36.3914 12.9771 36.7167 13.1696 36.9557V36.959C13.3124 37.1383 13.4783 37.2512 13.6742 37.2611C13.89 37.2711 14.1588 37.1682 14.4974 36.9059C14.6435 36.7698 14.7763 36.6537 14.9124 36.5375L14.9422 36.5109C15.3406 36.1657 15.7389 35.8238 15.9115 35.3557C15.885 35.3358 15.8551 35.3159 15.8219 35.2993C15.7456 35.2562 15.6493 35.213 15.553 35.1732L15.5431 35.1698C15.1879 35.0205 14.836 34.8678 14.5804 34.5491C14.3215 34.2271 14.1821 33.7591 14.2783 32.9956C14.2817 32.9491 14.2883 32.9093 14.2949 32.8694C14.3016 32.823 14.3082 32.7765 14.3115 32.73C14.3547 32.3848 14.3779 32.2055 14.3646 32.1557V32.1491C14.3547 32.1358 14.285 32.086 14.1456 31.9566C14.1057 31.9201 14.0626 31.8835 14.0261 31.8437C13.8203 31.6512 13.6742 31.4221 13.5812 31.1698C13.4783 30.891 13.4385 30.5856 13.4418 30.2669C13.4451 29.9549 13.4916 29.6296 13.5613 29.3209C13.6476 28.9458 13.7705 28.5873 13.8933 28.2918L13.8999 28.2819C13.9464 28.1723 14.0194 28.0827 14.1057 28.0163C14.1987 27.9433 14.3115 27.8968 14.4277 27.8802H14.4344C16.9472 27.5317 18.9754 27.5782 20.6783 27.7972C22.2153 27.9964 23.48 28.3317 24.6053 28.6504C23.7455 27.6711 22.9555 26.5192 22.2418 25.2645C21.3223 23.6446 20.5323 21.8487 19.8949 20.0296C19.2509 18.1906 18.763 16.3251 18.4576 14.5856C18.202 13.1251 18.0725 11.7508 18.0891 10.5591C17.1298 11.9367 15.8385 13.6097 13.9398 15.296C11.7721 17.218 8.81113 19.1566 4.64185 20.6902C4.59869 20.7035 4.55554 20.7201 4.51239 20.7334L4.49247 20.7666C4.49247 20.7666 4.16052 20.7732 4.08417 20.8927H4.4128C4.36965 20.9591 4.31654 21.0155 4.25679 21.062C4.1904 21.1118 5.80588 20.2483 5.72621 20.2716L4.02774 21.1748ZM22.9655 23.7441C23.5895 24.9425 24.28 26.0578 25.0269 27.0238C25.7372 27.94 26.5007 28.7267 27.304 29.3209L27.387 29.3275C27.4269 29.3308 27.4667 29.3308 27.4999 29.3275H27.5132C27.5762 29.3242 27.6393 29.3142 27.7057 29.2943C27.7688 29.2744 27.8352 29.2445 27.9049 29.2047C28.0742 29.0321 28.2136 28.8064 28.3264 28.5408C28.4526 28.2487 28.5455 27.9035 28.6053 27.5184C28.7879 26.3798 28.7015 24.9226 28.4194 23.3126C28.1107 21.5533 27.563 19.618 26.8725 17.7226C26.1953 15.8603 25.3787 14.0413 24.509 12.4678C23.6825 10.9674 22.8094 9.69271 21.9663 8.81969C21.6509 8.49106 21.3455 8.22882 21.0567 8.0396C20.7879 7.86367 20.5389 7.75081 20.3099 7.71429H20.3032C20.2501 7.70434 20.207 7.70102 20.1738 7.6977C20.1605 7.6977 20.1738 7.68774 20.1671 7.69106C20.1638 7.69106 20.1638 7.6977 20.1472 7.71097C20.1173 7.73753 20.0742 7.77736 20.0244 7.82716C19.9812 7.86699 19.9381 7.91678 19.8982 7.96326L19.885 7.98981C19.4999 8.78649 19.3671 10.0479 19.4501 11.5848C19.5364 13.145 19.8485 14.9807 20.3563 16.8861C21.8003 16.5541 22.9289 16.8595 23.7057 17.5068C24.1605 17.8852 24.4891 18.3765 24.6916 18.9242C24.8908 19.4686 24.9638 20.0695 24.904 20.6703C24.7912 21.852 24.1572 23.0205 22.9655 23.7441ZM27.1879 30.6786C27.1215 30.6885 27.0551 30.6885 26.9887 30.6786C26.9256 30.6686 26.8625 30.652 26.8028 30.6221C26.7132 30.6055 26.6235 30.5889 26.5372 30.569C25.9099 30.4396 25.2991 30.2636 24.6418 30.0777L24.5986 30.0645C22.3447 29.4238 19.5265 28.6205 15.0119 29.1782C14.9522 29.3508 14.9024 29.5367 14.8626 29.7192C14.8227 29.9118 14.7995 30.1043 14.7962 30.2802C14.7962 30.4196 14.8095 30.5491 14.8393 30.6553C14.8626 30.735 14.8991 30.8014 14.9489 30.8479L15.0285 30.9209C15.397 31.2562 15.5763 31.4221 15.6792 31.8006C15.7622 32.1059 15.7256 32.3881 15.6526 32.9458C15.6427 33.0221 15.636 33.0985 15.6227 33.1748C15.5895 33.4437 15.6327 33.5997 15.7124 33.696C15.7953 33.7956 15.9381 33.8586 16.0841 33.9184L16.1007 33.925C16.5655 34.1242 17.0302 34.3267 17.2692 34.9873C17.2958 35.047 17.3124 35.1134 17.319 35.1798C17.3256 35.2462 17.3256 35.3126 17.3124 35.3823V35.3856C17.2095 35.92 16.9904 36.3283 16.7149 36.6769C16.446 37.0188 16.1273 37.291 15.8119 37.5632L15.7389 37.6263C15.6294 37.7192 15.5231 37.8122 15.4202 37.9117L15.3671 37.9582C14.6468 38.5325 14.0327 38.7383 13.4916 38.6819C12.9439 38.6254 12.4891 38.3001 12.1041 37.8155C11.8385 37.4835 11.6194 37.0752 11.4236 36.6404C11.231 36.2088 11.0651 35.7541 10.9057 35.3126C10.8626 35.1898 10.8161 35.0669 10.7696 34.9441C10.2783 33.6196 9.91652 32.0097 9.54474 30.3466C9.42524 30.3798 9.30574 30.4196 9.18624 30.4528C9.00034 30.5093 8.81777 30.5624 8.64184 30.6188C8.46259 30.6752 8.28665 30.7317 8.11404 30.7848L8.10408 30.7881C8.07752 30.7947 8.05761 30.8047 8.04101 30.8113L8.03105 30.8147C7.90491 30.8678 7.81196 30.9043 7.70574 30.9143C7.60948 30.9242 7.51985 30.9142 7.41362 30.8744C6.45429 31.14 5.56799 31.0603 4.77795 30.7416C3.88168 30.3765 3.11156 29.696 2.50077 28.8429L2.49413 28.8362C2.26509 28.5076 2.05928 28.1557 1.87671 27.784C1.69082 27.4089 1.5348 27.0172 1.40534 26.6188C1.27588 26.2205 1.17629 25.8122 1.1099 25.4039C1.04351 24.9989 1.007 24.5939 1.00036 24.1956C0.990402 23.1931 1.18625 22.2437 1.62111 21.4769C2.01281 20.7898 2.84268 19.9632 3.63604 19.6645C3.66592 19.618 3.44351 19.867 3.47007 19.8338C3.51322 19.7773 3.55969 19.7275 3.62276 19.6744L3.63604 19.6645C3.70243 19.608 3.7655 19.5715 3.83853 19.535C3.90492 19.5051 3.98127 19.4753 4.08417 19.4388L4.17712 19.4056C8.3962 17.852 11.314 15.867 13.4086 13.9251C15.5032 11.9832 16.7779 10.0844 17.6974 8.7035L17.7173 8.67363C18.2319 7.90351 18.6468 7.2894 19.0617 6.87446C19.168 6.76824 19.2609 6.68193 19.3605 6.6089C19.4634 6.53255 19.5696 6.4728 19.6924 6.42633C19.8219 6.37986 19.948 6.3533 20.0841 6.34666C20.2169 6.34002 20.3597 6.3533 20.5256 6.37986C20.9173 6.44293 21.3157 6.60558 21.7173 6.85786C22.1256 7.11347 22.5372 7.46201 22.9455 7.88691C23.8551 8.82964 24.7912 10.1906 25.6708 11.7807C26.587 13.4338 27.4435 15.3325 28.1472 17.2744C28.8708 19.2661 29.4418 21.3043 29.7638 23.1732C30.0592 24.896 30.1455 26.4794 29.9397 27.7441C29.8534 28.2752 29.7173 28.7599 29.5281 29.1782C29.3422 29.5898 29.0999 29.945 28.8011 30.2338C28.7879 30.247 28.7713 30.2603 28.758 30.2736C28.7381 30.2869 28.7181 30.3035 28.6982 30.3167C28.5024 30.4462 28.3132 30.5391 28.124 30.5989C27.9314 30.662 27.7389 30.6918 27.5464 30.7018H27.5331C27.4667 30.7018 27.4036 30.7018 27.3439 30.6985C27.2974 30.6885 27.241 30.6852 27.1879 30.6786ZM35.3571 27.0504C34.8957 27.0703 34.5107 26.7118 34.4941 26.2504C34.4741 25.7889 34.8327 25.4039 35.2941 25.3873L41.1364 25.1682C41.5945 25.1549 41.9795 25.5134 41.9994 25.9682C42.016 26.4296 41.6609 26.8147 41.1994 26.8346L35.3571 27.0504ZM35.1912 21.374C34.7331 21.4338 34.3148 21.1118 34.2551 20.6603C34.1953 20.2022 34.5173 19.784 34.9688 19.7242L40.3662 19.0072C40.8243 18.9475 41.2426 19.2695 41.3023 19.7209C41.3621 20.179 41.0401 20.5973 40.5887 20.657L35.1912 21.374ZM34.0559 16.1624C33.621 16.3118 33.143 16.0827 32.9937 15.6479C32.841 15.213 33.0733 14.735 33.5082 14.5856L39.0418 12.6637C39.4766 12.5076 39.9546 12.7433 40.104 13.1782C40.2567 13.613 40.0243 14.091 39.5895 14.2404L34.0559 16.1624ZM31.4468 11.1467C31.0484 11.3757 30.5372 11.2363 30.3115 10.8346C30.0825 10.4363 30.2219 9.9284 30.6235 9.69935L35.8683 6.69189C36.2667 6.46284 36.7779 6.60226 37.0036 7.00392C37.2326 7.40226 37.0932 7.91014 36.6916 8.13919L31.4468 11.1467Z" fill="#4C4C6D"/>
<path d="M3.63604 19.6645C2.84268 19.9632 2.01281 20.7898 1.62111 21.4769C1.18625 22.2437 0.990402 23.1931 1.00036 24.1956C1.007 24.5939 1.04351 24.9989 1.1099 25.4039C1.17629 25.8122 1.27588 26.2205 1.40534 26.6188C1.5348 27.0172 1.69082 27.4089 1.87671 27.784C2.05928 28.1557 2.26509 28.5076 2.49413 28.8362L2.50077 28.8429C3.11156 29.696 3.88168 30.3765 4.77795 30.7416C5.56799 31.0603 6.45429 31.14 7.41362 30.8744C7.51985 30.9142 7.60948 30.9242 7.70574 30.9143C7.81196 30.9043 7.90491 30.8678 8.03105 30.8147L8.04101 30.8113C8.05761 30.8047 8.07752 30.7947 8.10408 30.7881L8.11404 30.7848C8.28665 30.7317 8.46259 30.6752 8.64184 30.6188C8.81777 30.5624 9.00034 30.5093 9.18624 30.4528C9.30574 30.4196 9.42524 30.3798 9.54474 30.3466C9.91652 32.0097 10.2783 33.6196 10.7696 34.9441C10.8161 35.0669 10.8626 35.1898 10.9057 35.3126C11.0651 35.7541 11.231 36.2088 11.4236 36.6404C11.6194 37.0752 11.8385 37.4835 12.1041 37.8155C12.4891 38.3001 12.9439 38.6254 13.4916 38.6819C14.0327 38.7383 14.6468 38.5325 15.3671 37.9582L15.4202 37.9117C15.5231 37.8122 15.6294 37.7192 15.7389 37.6263L15.8119 37.5632C16.1273 37.291 16.446 37.0188 16.7149 36.6769C16.9904 36.3283 17.2095 35.92 17.3124 35.3856V35.3823C17.3256 35.3126 17.3256 35.2462 17.319 35.1798C17.3124 35.1134 17.2958 35.047 17.2692 34.9873C17.0302 34.3267 16.5655 34.1242 16.1007 33.925L16.0841 33.9184C15.9381 33.8586 15.7953 33.7956 15.7124 33.696C15.6327 33.5997 15.5895 33.4437 15.6227 33.1748C15.636 33.0985 15.6427 33.0221 15.6526 32.9458C15.7256 32.3881 15.7622 32.1059 15.6792 31.8006C15.5763 31.4221 15.397 31.2562 15.0285 30.9209L14.9489 30.8479C14.8991 30.8014 14.8626 30.735 14.8393 30.6553C14.8095 30.5491 14.7962 30.4196 14.7962 30.2802C14.7995 30.1043 14.8227 29.9118 14.8626 29.7192C14.9024 29.5367 14.9522 29.3508 15.0119 29.1782C19.5265 28.6205 22.3447 29.4238 24.5986 30.0645L24.6418 30.0777C25.2991 30.2636 25.9099 30.4396 26.5372 30.569C26.6235 30.5889 26.7132 30.6055 26.8028 30.6221C26.8625 30.652 26.9256 30.6686 26.9887 30.6786C27.0551 30.6885 27.1215 30.6885 27.1879 30.6786C27.241 30.6852 27.2974 30.6885 27.3439 30.6985C27.4036 30.7018 27.4667 30.7018 27.5331 30.7018H27.5464C27.7389 30.6918 27.9314 30.662 28.124 30.5989C28.3132 30.5391 28.5024 30.4462 28.6982 30.3167C28.7181 30.3035 28.7381 30.2869 28.758 30.2736C28.7713 30.2603 28.7879 30.247 28.8011 30.2338C29.0999 29.945 29.3422 29.5898 29.5281 29.1782C29.7173 28.7599 29.8534 28.2752 29.9397 27.7441C30.1455 26.4794 30.0592 24.896 29.7638 23.1732C29.4418 21.3043 28.8708 19.2661 28.1472 17.2744C27.4435 15.3325 26.587 13.4338 25.6708 11.7807C24.7912 10.1906 23.8551 8.82964 22.9455 7.88691C22.5372 7.46201 22.1256 7.11347 21.7173 6.85786C21.3157 6.60558 20.9173 6.44293 20.5256 6.37986C20.3597 6.3533 20.2169 6.34002 20.0841 6.34666C19.948 6.3533 19.8219 6.37986 19.6924 6.42633C19.5696 6.4728 19.4634 6.53255 19.3605 6.6089C19.2609 6.68193 19.168 6.76824 19.0617 6.87446C18.6468 7.2894 18.2319 7.90351 17.7173 8.67363L17.6974 8.7035C16.7779 10.0844 15.5032 11.9832 13.4086 13.9251C11.314 15.867 8.3962 17.852 4.17712 19.4056L4.08417 19.4388C3.98127 19.4753 3.90492 19.5051 3.83853 19.535C3.7655 19.5715 3.70243 19.608 3.63604 19.6645ZM3.63604 19.6645C3.66592 19.618 3.44351 19.867 3.47007 19.8338C3.51322 19.7773 3.55969 19.7275 3.62276 19.6744L3.63604 19.6645ZM28.3298 6.61222C27.9746 6.90434 27.4501 6.85786 27.1547 6.49936C26.8592 6.14085 26.909 5.61969 27.2675 5.32426L32.27 1.19149C32.6252 0.89937 33.1497 0.945843 33.4451 1.30103C33.7372 1.65621 33.6907 2.18069 33.3322 2.47613L28.3298 6.61222ZM4.02774 21.1748C3.4767 21.3375 3.07173 21.696 2.80285 22.1707C2.49413 22.7184 2.35471 23.4255 2.36467 24.1823C2.36799 24.5076 2.40119 24.8429 2.45762 25.1815C2.51405 25.5234 2.60036 25.8653 2.70658 26.2006C2.81612 26.5392 2.9489 26.8678 3.10492 27.1831C3.25762 27.4885 3.43023 27.7806 3.61944 28.0462C4.08417 28.6935 4.66176 29.208 5.32898 29.4669C5.90989 29.696 6.56383 29.7292 7.26757 29.4869L7.28085 29.4835C7.36051 29.457 7.44018 29.447 7.51985 29.4537C7.57628 29.457 7.63271 29.4669 7.68914 29.4835L7.70574 29.4769C7.89495 29.4138 8.0908 29.3541 8.28333 29.2943L8.81113 29.1317C9.00366 29.0752 9.18623 29.0221 9.35885 28.9723C9.52814 28.9226 9.70076 28.8761 9.87669 28.8296C10.0593 28.7798 10.2418 28.8097 10.3945 28.896L10.4111 28.906C10.5539 28.9923 10.6634 29.1317 10.7132 29.3076C10.7232 29.3375 10.7265 29.3607 10.7298 29.3873C10.7763 29.5964 10.8327 29.8122 10.8725 30.0213C11.2344 31.6412 11.5862 33.2014 12.0543 34.4661C12.0941 34.5922 12.1439 34.7151 12.1904 34.8412C12.3331 35.2395 12.4825 35.6512 12.6485 36.0263C12.8078 36.3914 12.9771 36.7167 13.1696 36.9557V36.959C13.3124 37.1383 13.4783 37.2512 13.6742 37.2611C13.89 37.2711 14.1588 37.1682 14.4974 36.9059C14.6435 36.7698 14.7763 36.6537 14.9124 36.5375L14.9422 36.5109C15.3406 36.1657 15.7389 35.8238 15.9115 35.3557C15.885 35.3358 15.8551 35.3159 15.8219 35.2993C15.7456 35.2562 15.6493 35.213 15.553 35.1732L15.5431 35.1698C15.1879 35.0205 14.836 34.8678 14.5804 34.5491C14.3215 34.2271 14.1821 33.7591 14.2783 32.9956C14.2817 32.9491 14.2883 32.9093 14.2949 32.8694C14.3016 32.823 14.3082 32.7765 14.3115 32.73C14.3547 32.3848 14.3779 32.2055 14.3646 32.1557V32.1491C14.3547 32.1358 14.285 32.086 14.1456 31.9566C14.1057 31.9201 14.0626 31.8835 14.0261 31.8437C13.8203 31.6512 13.6742 31.4221 13.5812 31.1698C13.4783 30.891 13.4385 30.5856 13.4418 30.2669C13.4451 29.9549 13.4916 29.6296 13.5613 29.3209C13.6476 28.9458 13.7705 28.5873 13.8933 28.2918L13.8999 28.2819C13.9464 28.1723 14.0194 28.0827 14.1057 28.0163C14.1987 27.9433 14.3115 27.8968 14.4277 27.8802H14.4344C16.9472 27.5317 18.9754 27.5782 20.6783 27.7972C22.2153 27.9964 23.48 28.3317 24.6053 28.6504C23.7455 27.6711 22.9555 26.5192 22.2418 25.2645C21.3223 23.6446 20.5323 21.8487 19.8949 20.0296C19.2509 18.1906 18.763 16.3251 18.4576 14.5856C18.202 13.1251 18.0725 11.7508 18.0891 10.5591C17.1298 11.9367 15.8385 13.6097 13.9398 15.296C11.7721 17.218 8.81113 19.1566 4.64185 20.6902C4.59869 20.7035 4.55554 20.7201 4.51239 20.7334L4.49247 20.7666C4.49247 20.7666 4.16052 20.7732 4.08417 20.8927H4.4128C4.36965 20.9591 4.31654 21.0155 4.25679 21.062C4.1904 21.1118 5.80588 20.2483 5.72621 20.2716L4.02774 21.1748ZM22.9655 23.7441C23.5895 24.9425 24.28 26.0578 25.0269 27.0238C25.7372 27.94 26.5007 28.7267 27.304 29.3209L27.387 29.3275C27.4269 29.3308 27.4667 29.3308 27.4999 29.3275H27.5132C27.5762 29.3242 27.6393 29.3142 27.7057 29.2943C27.7688 29.2744 27.8352 29.2445 27.9049 29.2047C28.0742 29.0321 28.2136 28.8064 28.3264 28.5408C28.4526 28.2487 28.5455 27.9035 28.6053 27.5184C28.7879 26.3798 28.7015 24.9226 28.4194 23.3126C28.1107 21.5533 27.563 19.618 26.8725 17.7226C26.1953 15.8603 25.3787 14.0413 24.509 12.4678C23.6825 10.9674 22.8094 9.69271 21.9663 8.81969C21.6509 8.49106 21.3455 8.22882 21.0567 8.0396C20.7879 7.86367 20.5389 7.75081 20.3099 7.71429H20.3032C20.2501 7.70434 20.207 7.70102 20.1738 7.6977C20.1605 7.6977 20.1738 7.68774 20.1671 7.69106C20.1638 7.69106 20.1638 7.6977 20.1472 7.71097C20.1173 7.73753 20.0742 7.77736 20.0244 7.82716C19.9812 7.86699 19.9381 7.91678 19.8982 7.96326L19.885 7.98981C19.4999 8.78649 19.3671 10.0479 19.4501 11.5848C19.5364 13.145 19.8485 14.9807 20.3563 16.8861C21.8003 16.5541 22.9289 16.8595 23.7057 17.5068C24.1605 17.8852 24.4891 18.3765 24.6916 18.9242C24.8908 19.4686 24.9638 20.0695 24.904 20.6703C24.7912 21.852 24.1572 23.0205 22.9655 23.7441ZM35.3571 27.0504C34.8957 27.0703 34.5107 26.7118 34.4941 26.2504C34.4741 25.7889 34.8327 25.4039 35.2941 25.3873L41.1364 25.1682C41.5945 25.1549 41.9795 25.5134 41.9994 25.9682C42.016 26.4296 41.6609 26.8147 41.1994 26.8346L35.3571 27.0504ZM35.1912 21.374C34.7331 21.4338 34.3148 21.1118 34.2551 20.6603C34.1953 20.2022 34.5173 19.784 34.9688 19.7242L40.3662 19.0072C40.8243 18.9475 41.2426 19.2695 41.3023 19.7209C41.3621 20.179 41.0401 20.5973 40.5887 20.657L35.1912 21.374ZM34.0559 16.1624C33.621 16.3118 33.143 16.0827 32.9937 15.6479C32.841 15.213 33.0733 14.735 33.5082 14.5856L39.0418 12.6637C39.4766 12.5076 39.9546 12.7433 40.104 13.1782C40.2567 13.613 40.0243 14.091 39.5895 14.2404L34.0559 16.1624ZM31.4468 11.1467C31.0484 11.3757 30.5372 11.2363 30.3115 10.8346C30.0825 10.4363 30.2219 9.9284 30.6235 9.69935L35.8683 6.69189C36.2667 6.46284 36.7779 6.60226 37.0036 7.00392C37.2326 7.40226 37.0932 7.91014 36.6916 8.13919L31.4468 11.1467Z" stroke="#4C4C6D" stroke-width="1.2"/>
</svg>
